# xmcd
# Track frame offsets:
# 150
# 20531
# 33820
# 57954
# 76771
# 99968
# 119860
# 138769
# 151753
# 174971
# 194899
# 216474
# 236560
#
# Disc length: 3680 seconds
# Revision: 0
# Processed by: cddbd v1.4PL0 Copyright (c) Steve Scherf et al.
# Submitted via: VisiTrax 2.9.7.197 - For more info visit www.synapsa.com
#
DISCID=a90e5e0d
DTITLE=Willie Nelson,  Featuring Francine Reed, B.B.King and - Milk Cow Blues
DYEAR=2000
DGENRE=Country
TTITLE0=Featuring Francine Reed - Milk Cow Blues
TTITLE1=Featuring Ken Mory - Outskirts Of Town
TTITLE2=Featuring Dr. John - Black Night
TTITLE3=Featuring Francine Reed - Funny How Time Slips Away
TTITLE4=Featuring Jonny Lang - Rainy Day Blues
TTITLE5=Featuring Susan Tedeschi - The Trill Is Gone,
TTITLE6=Featuring B.B. King - Wake Me When It's Over,
TTITLE7=Featuring Susan Tedeschi, - Kansas City,
TTITLE8=Featuring Jonny Lang - - Ain't Nobody's Business,
TTITLE9=Featuring B.B. King - Night Life,  (Fools Paradise)
TTITLE10=Willie Nelson - Sittin' On Top Of The World,
TTITLE11=Willie Nelson - Lonely Streets,
TTITLE12=Willie Nelson - Texas Flood
EXTD=Label: Island 2000-09-18 -The Island Def Jam Music Grup
EXTT0=
EXTT1=
EXTT2=
EXTT3=
EXTT4=
EXTT5=
EXTT6=
EXTT7=
EXTT8=
EXTT9=
EXTT10=
EXTT11=
EXTT12=
PLAYORDER=
